<?xml version="1.0" standalone="no"?>
<!DOCTYPE svg PUBLIC "-//W3C//DTD SVG 20010904//EN"
 "http://www.w3.org/TR/2001/REC-SVG-20010904/DTD/svg10.dtd">
<svg version="1.0" xmlns="http://www.w3.org/2000/svg"
 width="936.000000pt" height="176.000000pt" viewBox="0 0 936.000000 176.000000"
 preserveAspectRatio="xMidYMid meet">

<g transform="translate(0.000000,176.000000) scale(0.100000,-0.100000)"
fill="#000000" stroke="none">
<path d="M518 1364 c-56 -30 -58 -45 -58 -379 0 -254 3 -311 15 -335 31 -60
28 -60 545 -60 522 0 550 3 581 54 17 29 19 54 19 339 0 330 -2 346 -52 381
-33 23 -1008 23 -1050 0z m95 -46 c2 -7 5 -59 6 -116 l2 -103 -31 -10 c-17 -6
-35 -20 -41 -30 -5 -10 -16 -19 -24 -19 -12 0 -15 22 -15 123 0 124 6 148 40
160 27 10 58 7 63 -5z m787 -107 c0 -108 -2 -120 -19 -126 -10 -3 -26 -14 -36
-25 -26 -29 -35 -25 -35 14 0 52 -22 68 -89 64 l-56 -3 -5 65 c-3 36 -9 71
-13 78 -12 17 -201 17 -215 -1 -6 -7 -12 -42 -14 -77 l-3 -65 -65 -3 c-36 -2
-69 -7 -73 -11 -5 -5 -11 -24 -14 -42 -7 -45 -9 -46 -36 -22 -12 11 -32 26
-44 32 -22 11 -23 18 -23 120 0 59 3 111 7 114 3 4 170 7 370 7 l363 0 0 -119z
m157 92 c18 -23 14 -264 -4 -270 -6 -2 -24 10 -39 26 -15 17 -36 31 -46 31
-16 0 -18 10 -18 113 0 63 3 117 8 121 13 13 86 -2 99 -21z m-443 -75 c3 -13
6 -44 6 -70 0 -53 0 -52 93 -63 l58 -7 -3 -71 -3 -72 -60 -3 c-32 -2 -65 -8
-72 -13 -7 -6 -13 -38 -15 -72 -3 -71 -9 -74 -103 -69 l-55 4 0 55 c0 84 -9
93 -85 93 l-65 0 0 74 0 74 63 7 c34 4 68 12 75 17 7 7 12 35 12 74 l0 64 74
0 c68 0 74 -2 80 -22z m-418 -213 c10 -15 26 -25 40 -25 19 0 24 -5 24 -27 0
-48 14 -58 87 -63 l68 -5 3 -60 c2 -32 8 -65 14 -72 14 -17 199 -18 216 -1 7
7 12 39 12 75 l0 63 63 0 c72 0 87 10 87 57 0 28 3 33 25 33 15 0 31 9 41 25
23 35 87 36 110 1 10 -16 27 -26 47 -28 l32 -3 0 -145 c0 -145 0 -145 -23
-143 -12 2 -38 9 -57 17 l-35 15 0 136 c0 136 0 136 -22 133 -22 -3 -23 -7
-26 -135 l-3 -133 -369 0 -369 0 -3 133 c-3 124 -4 132 -23 132 -19 0 -20 -7
-20 -130 0 -71 -4 -135 -8 -142 -9 -14 -76 -35 -89 -27 -4 3 -8 70 -8 150 0
136 1 145 18 140 18 -6 62 26 62 44 0 6 20 10 45 10 36 0 47 -4 61 -25z m759
-349 c45 -13 0 -14 -410 -14 -394 0 -454 2 -420 13 59 20 760 20 830 1z"/>
<path d="M6057 1263 c-4 -3 -7 -156 -7 -340 l0 -333 45 0 45 0 0 340 0 340
-38 0 c-21 0 -42 -3 -45 -7z"/>
<path d="M6597 1263 c-4 -3 -7 -156 -7 -340 l0 -333 44 0 44 0 4 146 3 146 33
29 c25 23 42 29 75 29 84 -1 97 -30 97 -209 l0 -141 40 0 40 0 0 168 c0 148
-2 171 -20 199 -25 42 -68 63 -129 63 -58 0 -92 -11 -121 -40 l-20 -20 0 155
0 155 -38 0 c-21 0 -42 -3 -45 -7z"/>
<path d="M3800 1224 c-113 -39 -159 -144 -111 -250 24 -52 58 -76 163 -114
104 -38 133 -64 124 -114 -10 -53 -55 -86 -117 -86 -53 0 -80 10 -117 43 l-22
21 -33 -30 c-17 -16 -34 -30 -36 -31 -10 -6 38 -47 74 -64 51 -23 202 -26 243
-5 110 58 142 223 56 294 -19 16 -64 39 -102 52 -91 31 -138 56 -146 75 -21
56 7 118 60 131 43 11 114 -2 139 -26 l23 -22 38 34 37 35 -34 25 c-67 50
-153 61 -239 32z"/>
<path d="M7314 1226 c-63 -15 -112 -45 -157 -96 -49 -54 -65 -87 -78 -167 -25
-150 54 -304 185 -364 31 -14 65 -19 136 -19 83 0 101 3 148 27 29 15 62 39
73 54 l19 27 -29 21 c-37 26 -53 26 -77 0 -36 -40 -73 -52 -149 -47 -56 4 -80
11 -110 31 -79 53 -114 141 -102 247 11 92 73 174 152 200 59 20 147 9 188
-23 43 -33 45 -33 85 -4 l31 24 -33 32 c-65 63 -169 84 -282 57z"/>
<path d="M1993 1222 c-24 -2 -43 -6 -43 -10 0 -4 53 -145 118 -315 l117 -307
44 2 44 3 118 298 c65 165 119 300 121 302 2 2 54 -73 116 -166 l112 -169 0
-135 0 -135 45 0 45 0 0 133 0 132 120 183 c66 101 120 185 120 187 0 2 -8 2
-17 0 -10 -2 -35 -4 -55 -4 -37 -1 -39 -3 -125 -135 l-88 -135 -85 137 -86
137 -94 -2 c-51 -1 -96 -6 -100 -10 -4 -4 -47 -115 -95 -245 -49 -131 -92
-238 -95 -238 -3 0 -46 110 -94 245 -49 135 -91 246 -95 248 -3 1 -25 1 -48
-1z"/>
<path d="M3306 1220 l-40 -5 -128 -290 c-70 -159 -132 -300 -138 -312 -9 -22
-8 -23 44 -23 l53 0 29 75 29 75 151 0 152 0 30 -72 31 -73 52 -3 c39 -2 50 0
47 10 -29 75 -262 614 -266 618 -4 3 -25 3 -46 0z m78 -298 c21 -51 36 -95 33
-98 -2 -3 -54 -3 -115 -2 l-110 3 56 138 56 138 21 -43 c11 -24 38 -85 59
-136z"/>
<path d="M4488 1222 l-38 -3 0 -315 0 -314 45 0 45 0 0 140 0 140 160 0 160 0
0 -140 0 -140 45 0 45 0 0 318 0 317 -45 -3 -45 -4 0 -129 0 -129 -160 0 -160
0 0 129 c0 72 -3 131 -7 133 -5 2 -25 2 -45 0z"/>
<path d="M6290 1076 c0 -58 -7 -66 -61 -66 -27 0 -29 -3 -29 -35 0 -35 0 -35
45 -35 l45 0 1 -107 c1 -211 22 -253 124 -253 74 0 85 6 85 46 l0 34 -50 0
c-45 0 -52 3 -60 26 -6 14 -10 77 -10 140 l0 114 61 0 60 0 -3 38 -3 37 -57 3
-58 3 0 54 0 55 -45 0 -45 0 0 -54z"/>
<path d="M5184 1001 c-87 -40 -137 -145 -114 -245 13 -59 31 -94 62 -123 81
-76 260 -69 320 12 18 23 17 24 -13 45 -30 22 -30 22 -52 2 -39 -35 -67 -44
-114 -37 -51 7 -108 52 -115 90 l-5 25 170 0 170 0 -6 59 c-6 75 -37 130 -90
164 -34 22 -52 27 -107 27 -41 0 -80 -7 -106 -19z m167 -66 c16 -9 34 -27 39
-41 21 -54 20 -54 -114 -54 l-125 0 10 30 c17 48 63 80 115 80 25 0 58 -7 75
-15z"/>
<path d="M5643 995 c-29 -13 -53 -27 -53 -31 0 -4 10 -18 21 -30 22 -23 22
-23 58 -5 84 43 175 19 183 -49 3 -25 1 -25 -82 -31 -138 -10 -203 -55 -203
-143 0 -81 53 -126 148 -126 59 0 85 9 123 43 l22 20 0 -26 c0 -25 3 -27 41
-27 l41 0 -3 169 c-4 152 -6 172 -24 197 -51 68 -173 86 -272 39z m210 -217
c8 -26 -13 -84 -38 -105 -32 -28 -108 -31 -143 -7 -27 19 -29 64 -4 87 36 32
176 51 185 25z"/>
<path d="M7797 1006 c-38 -14 -67 -33 -67 -45 1 -3 9 -17 20 -29 l20 -24 34
21 c50 31 129 29 162 -4 16 -16 24 -34 22 -48 -3 -20 -10 -23 -84 -28 -134
-10 -204 -58 -204 -142 0 -40 35 -96 70 -114 30 -15 118 -17 154 -3 14 5 34
18 45 29 l21 21 6 -25 c5 -21 12 -25 43 -25 l36 0 -5 172 c-6 193 -10 207 -72
239 -44 23 -144 25 -201 5z m193 -240 c0 -36 -15 -71 -41 -95 -29 -26 -119
-30 -143 -5 -25 24 -21 81 7 95 32 18 75 27 130 28 43 1 47 -1 47 -23z"/>
<path d="M8324 1006 c-18 -8 -37 -22 -43 -33 -9 -16 -10 -15 -11 10 0 25 -3
27 -45 27 l-45 0 0 -210 0 -210 45 0 45 0 0 125 c0 180 18 215 114 215 l46 0
0 45 0 45 -37 0 c-21 -1 -52 -7 -69 -14z"/>
<path d="M8607 1005 c-138 -49 -177 -255 -70 -367 65 -68 209 -79 292 -23 25
17 46 35 48 41 2 7 -10 22 -27 34 -31 22 -31 22 -53 2 -39 -35 -67 -44 -114
-37 -51 7 -108 52 -115 90 l-5 25 168 0 169 0 0 48 c0 70 -40 145 -94 177 -49
29 -135 33 -199 10z m172 -84 c19 -18 31 -39 31 -55 l0 -26 -120 0 c-115 0
-120 1 -120 21 0 12 15 36 34 55 30 30 40 34 89 34 47 0 59 -4 86 -29z"/>
</g>
</svg>
